<mxfile host="app.diagrams.net" agent="Mozilla/5.0 (X11; Linux x86_64) AppleWebKit/537.36 (KHTML, like Gecko) Chrome/132.0.0.0 Safari/537.36" version="26.0.11">
  <diagram name="PÃ¡gina-1" id="zxSFp8283n_Jm-AruGei">
    <mxGraphModel dx="1467" dy="847" grid="1" gridSize="10" guides="1" tooltips="1" connect="1" arrows="1" fold="1" page="1" pageScale="1" pageWidth="827" pageHeight="1169" math="0" shadow="0">
      <root>
        <mxCell id="0" />
        <mxCell id="1" parent="0" />
        <mxCell id="d1kIAFUHzAlKJHbenDgn-9" style="edgeStyle=orthogonalEdgeStyle;rounded=0;orthogonalLoop=1;jettySize=auto;html=1;entryX=0.5;entryY=0;entryDx=0;entryDy=0;" edge="1" parent="1" source="d1kIAFUHzAlKJHbenDgn-1" target="d1kIAFUHzAlKJHbenDgn-4">
          <mxGeometry relative="1" as="geometry" />
        </mxCell>
        <mxCell id="d1kIAFUHzAlKJHbenDgn-1" value="NOME" style="html=1;strokeWidth=2;shape=manualInput;whiteSpace=wrap;rounded=1;size=26;arcSize=11;" vertex="1" parent="1">
          <mxGeometry x="248" y="112" width="100" height="60" as="geometry" />
        </mxCell>
        <mxCell id="d1kIAFUHzAlKJHbenDgn-8" style="edgeStyle=orthogonalEdgeStyle;rounded=0;orthogonalLoop=1;jettySize=auto;html=1;entryX=0.5;entryY=0;entryDx=0;entryDy=0;" edge="1" parent="1" source="d1kIAFUHzAlKJHbenDgn-2" target="d1kIAFUHzAlKJHbenDgn-1">
          <mxGeometry relative="1" as="geometry" />
        </mxCell>
        <mxCell id="d1kIAFUHzAlKJHbenDgn-2" value="INICIO" style="strokeWidth=2;html=1;shape=mxgraph.flowchart.start_1;whiteSpace=wrap;" vertex="1" parent="1">
          <mxGeometry x="248" y="30" width="100" height="60" as="geometry" />
        </mxCell>
        <mxCell id="d1kIAFUHzAlKJHbenDgn-3" value="FIM" style="strokeWidth=2;html=1;shape=mxgraph.flowchart.start_1;whiteSpace=wrap;" vertex="1" parent="1">
          <mxGeometry x="284" y="1080" width="100" height="60" as="geometry" />
        </mxCell>
        <mxCell id="d1kIAFUHzAlKJHbenDgn-10" style="edgeStyle=orthogonalEdgeStyle;rounded=0;orthogonalLoop=1;jettySize=auto;html=1;entryX=0.5;entryY=0;entryDx=0;entryDy=0;" edge="1" parent="1" source="d1kIAFUHzAlKJHbenDgn-4" target="d1kIAFUHzAlKJHbenDgn-5">
          <mxGeometry relative="1" as="geometry" />
        </mxCell>
        <mxCell id="d1kIAFUHzAlKJHbenDgn-4" value="CIDADE" style="html=1;strokeWidth=2;shape=manualInput;whiteSpace=wrap;rounded=1;size=26;arcSize=11;" vertex="1" parent="1">
          <mxGeometry x="248" y="196" width="100" height="60" as="geometry" />
        </mxCell>
        <mxCell id="d1kIAFUHzAlKJHbenDgn-11" style="edgeStyle=orthogonalEdgeStyle;rounded=0;orthogonalLoop=1;jettySize=auto;html=1;entryX=0.5;entryY=0;entryDx=0;entryDy=0;entryPerimeter=0;" edge="1" parent="1" source="d1kIAFUHzAlKJHbenDgn-5" target="d1kIAFUHzAlKJHbenDgn-14">
          <mxGeometry relative="1" as="geometry">
            <mxPoint x="298" y="382" as="targetPoint" />
          </mxGeometry>
        </mxCell>
        <mxCell id="d1kIAFUHzAlKJHbenDgn-5" value="VALOR_LITRO" style="html=1;strokeWidth=2;shape=manualInput;whiteSpace=wrap;rounded=1;size=26;arcSize=11;" vertex="1" parent="1">
          <mxGeometry x="248" y="286" width="100" height="60" as="geometry" />
        </mxCell>
        <mxCell id="d1kIAFUHzAlKJHbenDgn-34" style="edgeStyle=orthogonalEdgeStyle;rounded=0;orthogonalLoop=1;jettySize=auto;html=1;" edge="1" parent="1" source="d1kIAFUHzAlKJHbenDgn-14" target="d1kIAFUHzAlKJHbenDgn-15">
          <mxGeometry relative="1" as="geometry" />
        </mxCell>
        <mxCell id="d1kIAFUHzAlKJHbenDgn-14" value="CIDADE = &quot;PI&quot;" style="strokeWidth=2;html=1;shape=mxgraph.flowchart.decision;whiteSpace=wrap;" vertex="1" parent="1">
          <mxGeometry x="248" y="370" width="100" height="100" as="geometry" />
        </mxCell>
        <mxCell id="d1kIAFUHzAlKJHbenDgn-15" value="VALOR_VIAGEM = 220" style="rounded=1;whiteSpace=wrap;html=1;absoluteArcSize=1;arcSize=14;strokeWidth=2;" vertex="1" parent="1">
          <mxGeometry x="374" y="395" width="160" height="50" as="geometry" />
        </mxCell>
        <mxCell id="d1kIAFUHzAlKJHbenDgn-19" value="" style="strokeWidth=2;html=1;shape=mxgraph.flowchart.start_2;whiteSpace=wrap;" vertex="1" parent="1">
          <mxGeometry x="574" y="410" width="20" height="20" as="geometry" />
        </mxCell>
        <mxCell id="d1kIAFUHzAlKJHbenDgn-38" style="edgeStyle=orthogonalEdgeStyle;rounded=0;orthogonalLoop=1;jettySize=auto;html=1;" edge="1" parent="1" source="d1kIAFUHzAlKJHbenDgn-21" target="d1kIAFUHzAlKJHbenDgn-22">
          <mxGeometry relative="1" as="geometry" />
        </mxCell>
        <mxCell id="d1kIAFUHzAlKJHbenDgn-21" value="CIDADE = &quot;CA&quot;" style="strokeWidth=2;html=1;shape=mxgraph.flowchart.decision;whiteSpace=wrap;" vertex="1" parent="1">
          <mxGeometry x="248" y="500" width="100" height="100" as="geometry" />
        </mxCell>
        <mxCell id="d1kIAFUHzAlKJHbenDgn-39" style="edgeStyle=orthogonalEdgeStyle;rounded=0;orthogonalLoop=1;jettySize=auto;html=1;" edge="1" parent="1" source="d1kIAFUHzAlKJHbenDgn-22" target="d1kIAFUHzAlKJHbenDgn-23">
          <mxGeometry relative="1" as="geometry" />
        </mxCell>
        <mxCell id="d1kIAFUHzAlKJHbenDgn-22" value="VALOR_VIAGEM = 180" style="rounded=1;whiteSpace=wrap;html=1;absoluteArcSize=1;arcSize=14;strokeWidth=2;" vertex="1" parent="1">
          <mxGeometry x="374" y="525" width="160" height="50" as="geometry" />
        </mxCell>
        <mxCell id="d1kIAFUHzAlKJHbenDgn-23" value="" style="strokeWidth=2;html=1;shape=mxgraph.flowchart.start_2;whiteSpace=wrap;" vertex="1" parent="1">
          <mxGeometry x="574" y="540" width="20" height="20" as="geometry" />
        </mxCell>
        <mxCell id="d1kIAFUHzAlKJHbenDgn-41" style="edgeStyle=orthogonalEdgeStyle;rounded=0;orthogonalLoop=1;jettySize=auto;html=1;" edge="1" parent="1" source="d1kIAFUHzAlKJHbenDgn-24" target="d1kIAFUHzAlKJHbenDgn-25">
          <mxGeometry relative="1" as="geometry" />
        </mxCell>
        <mxCell id="d1kIAFUHzAlKJHbenDgn-24" value="CIDADE = &quot;JU&quot;" style="strokeWidth=2;html=1;shape=mxgraph.flowchart.decision;whiteSpace=wrap;" vertex="1" parent="1">
          <mxGeometry x="248" y="630" width="100" height="100" as="geometry" />
        </mxCell>
        <mxCell id="d1kIAFUHzAlKJHbenDgn-40" style="edgeStyle=orthogonalEdgeStyle;rounded=0;orthogonalLoop=1;jettySize=auto;html=1;" edge="1" parent="1" source="d1kIAFUHzAlKJHbenDgn-25" target="d1kIAFUHzAlKJHbenDgn-26">
          <mxGeometry relative="1" as="geometry" />
        </mxCell>
        <mxCell id="d1kIAFUHzAlKJHbenDgn-25" value="VALOR_VIAGEM = 120" style="rounded=1;whiteSpace=wrap;html=1;absoluteArcSize=1;arcSize=14;strokeWidth=2;" vertex="1" parent="1">
          <mxGeometry x="374" y="655" width="160" height="50" as="geometry" />
        </mxCell>
        <mxCell id="d1kIAFUHzAlKJHbenDgn-26" value="" style="strokeWidth=2;html=1;shape=mxgraph.flowchart.start_2;whiteSpace=wrap;" vertex="1" parent="1">
          <mxGeometry x="574" y="670" width="20" height="20" as="geometry" />
        </mxCell>
        <mxCell id="d1kIAFUHzAlKJHbenDgn-45" style="edgeStyle=orthogonalEdgeStyle;rounded=0;orthogonalLoop=1;jettySize=auto;html=1;" edge="1" parent="1" source="d1kIAFUHzAlKJHbenDgn-27" target="d1kIAFUHzAlKJHbenDgn-28">
          <mxGeometry relative="1" as="geometry" />
        </mxCell>
        <mxCell id="d1kIAFUHzAlKJHbenDgn-27" value="" style="strokeWidth=2;html=1;shape=mxgraph.flowchart.start_2;whiteSpace=wrap;" vertex="1" parent="1">
          <mxGeometry x="288" y="760" width="20" height="20" as="geometry" />
        </mxCell>
        <mxCell id="d1kIAFUHzAlKJHbenDgn-47" style="edgeStyle=orthogonalEdgeStyle;rounded=0;orthogonalLoop=1;jettySize=auto;html=1;entryX=0.5;entryY=0;entryDx=0;entryDy=0;" edge="1" parent="1" source="d1kIAFUHzAlKJHbenDgn-28" target="d1kIAFUHzAlKJHbenDgn-31">
          <mxGeometry relative="1" as="geometry" />
        </mxCell>
        <mxCell id="d1kIAFUHzAlKJHbenDgn-28" value="VALOR_VIAGEM &amp;gt; 0" style="strokeWidth=2;html=1;shape=mxgraph.flowchart.decision;whiteSpace=wrap;" vertex="1" parent="1">
          <mxGeometry x="223" y="800" width="150" height="60" as="geometry" />
        </mxCell>
        <mxCell id="d1kIAFUHzAlKJHbenDgn-30" value="CIDADE INVALIDA" style="strokeWidth=2;html=1;shape=mxgraph.flowchart.display;whiteSpace=wrap;" vertex="1" parent="1">
          <mxGeometry x="104" y="900" width="100" height="60" as="geometry" />
        </mxCell>
        <mxCell id="d1kIAFUHzAlKJHbenDgn-48" style="edgeStyle=orthogonalEdgeStyle;rounded=0;orthogonalLoop=1;jettySize=auto;html=1;" edge="1" parent="1" source="d1kIAFUHzAlKJHbenDgn-31" target="d1kIAFUHzAlKJHbenDgn-32">
          <mxGeometry relative="1" as="geometry" />
        </mxCell>
        <mxCell id="d1kIAFUHzAlKJHbenDgn-31" value="VALOR_VIAGEM = VALOR_VIAGEM * (VALOR_LITRO / 10)" style="rounded=1;whiteSpace=wrap;html=1;absoluteArcSize=1;arcSize=14;strokeWidth=2;" vertex="1" parent="1">
          <mxGeometry x="384" y="865" width="340" height="50" as="geometry" />
        </mxCell>
        <mxCell id="d1kIAFUHzAlKJHbenDgn-49" style="edgeStyle=orthogonalEdgeStyle;rounded=0;orthogonalLoop=1;jettySize=auto;html=1;" edge="1" parent="1" source="d1kIAFUHzAlKJHbenDgn-32" target="d1kIAFUHzAlKJHbenDgn-33">
          <mxGeometry relative="1" as="geometry" />
        </mxCell>
        <mxCell id="d1kIAFUHzAlKJHbenDgn-32" value="VALOR_VIAGEM = VALOR_VIAGEM * 1.30" style="rounded=1;whiteSpace=wrap;html=1;absoluteArcSize=1;arcSize=14;strokeWidth=2;" vertex="1" parent="1">
          <mxGeometry x="384" y="936" width="340" height="50" as="geometry" />
        </mxCell>
        <mxCell id="d1kIAFUHzAlKJHbenDgn-33" value="NOME&lt;div&gt;CIDADE&lt;/div&gt;&lt;div&gt;VALOR_VIAGEM&lt;/div&gt;" style="strokeWidth=2;html=1;shape=mxgraph.flowchart.display;whiteSpace=wrap;" vertex="1" parent="1">
          <mxGeometry x="489" y="1000" width="130" height="70" as="geometry" />
        </mxCell>
        <mxCell id="d1kIAFUHzAlKJHbenDgn-35" style="edgeStyle=orthogonalEdgeStyle;rounded=0;orthogonalLoop=1;jettySize=auto;html=1;entryX=0;entryY=0.5;entryDx=0;entryDy=0;entryPerimeter=0;" edge="1" parent="1" source="d1kIAFUHzAlKJHbenDgn-15" target="d1kIAFUHzAlKJHbenDgn-19">
          <mxGeometry relative="1" as="geometry" />
        </mxCell>
        <mxCell id="d1kIAFUHzAlKJHbenDgn-36" style="edgeStyle=orthogonalEdgeStyle;rounded=0;orthogonalLoop=1;jettySize=auto;html=1;entryX=0.5;entryY=0;entryDx=0;entryDy=0;entryPerimeter=0;" edge="1" parent="1" source="d1kIAFUHzAlKJHbenDgn-19" target="d1kIAFUHzAlKJHbenDgn-23">
          <mxGeometry relative="1" as="geometry" />
        </mxCell>
        <mxCell id="d1kIAFUHzAlKJHbenDgn-37" style="edgeStyle=orthogonalEdgeStyle;rounded=0;orthogonalLoop=1;jettySize=auto;html=1;entryX=0.5;entryY=0;entryDx=0;entryDy=0;entryPerimeter=0;" edge="1" parent="1" source="d1kIAFUHzAlKJHbenDgn-23" target="d1kIAFUHzAlKJHbenDgn-26">
          <mxGeometry relative="1" as="geometry" />
        </mxCell>
        <mxCell id="d1kIAFUHzAlKJHbenDgn-42" style="edgeStyle=orthogonalEdgeStyle;rounded=0;orthogonalLoop=1;jettySize=auto;html=1;entryX=0.5;entryY=0;entryDx=0;entryDy=0;entryPerimeter=0;" edge="1" parent="1" source="d1kIAFUHzAlKJHbenDgn-14" target="d1kIAFUHzAlKJHbenDgn-21">
          <mxGeometry relative="1" as="geometry" />
        </mxCell>
        <mxCell id="d1kIAFUHzAlKJHbenDgn-43" style="edgeStyle=orthogonalEdgeStyle;rounded=0;orthogonalLoop=1;jettySize=auto;html=1;entryX=0.5;entryY=0;entryDx=0;entryDy=0;entryPerimeter=0;" edge="1" parent="1" source="d1kIAFUHzAlKJHbenDgn-21" target="d1kIAFUHzAlKJHbenDgn-24">
          <mxGeometry relative="1" as="geometry" />
        </mxCell>
        <mxCell id="d1kIAFUHzAlKJHbenDgn-44" style="edgeStyle=orthogonalEdgeStyle;rounded=0;orthogonalLoop=1;jettySize=auto;html=1;entryX=0.5;entryY=0;entryDx=0;entryDy=0;entryPerimeter=0;" edge="1" parent="1" source="d1kIAFUHzAlKJHbenDgn-24" target="d1kIAFUHzAlKJHbenDgn-27">
          <mxGeometry relative="1" as="geometry" />
        </mxCell>
        <mxCell id="d1kIAFUHzAlKJHbenDgn-46" style="edgeStyle=orthogonalEdgeStyle;rounded=0;orthogonalLoop=1;jettySize=auto;html=1;entryX=0.5;entryY=0;entryDx=0;entryDy=0;entryPerimeter=0;" edge="1" parent="1" source="d1kIAFUHzAlKJHbenDgn-28" target="d1kIAFUHzAlKJHbenDgn-30">
          <mxGeometry relative="1" as="geometry" />
        </mxCell>
        <mxCell id="d1kIAFUHzAlKJHbenDgn-50" style="edgeStyle=orthogonalEdgeStyle;rounded=0;orthogonalLoop=1;jettySize=auto;html=1;entryX=0.5;entryY=0;entryDx=0;entryDy=0;entryPerimeter=0;" edge="1" parent="1" source="d1kIAFUHzAlKJHbenDgn-33" target="d1kIAFUHzAlKJHbenDgn-3">
          <mxGeometry relative="1" as="geometry" />
        </mxCell>
        <mxCell id="d1kIAFUHzAlKJHbenDgn-51" style="edgeStyle=orthogonalEdgeStyle;rounded=0;orthogonalLoop=1;jettySize=auto;html=1;entryX=0.39;entryY=0;entryDx=0;entryDy=0;entryPerimeter=0;" edge="1" parent="1" source="d1kIAFUHzAlKJHbenDgn-30" target="d1kIAFUHzAlKJHbenDgn-3">
          <mxGeometry relative="1" as="geometry">
            <Array as="points">
              <mxPoint x="164" y="1040" />
              <mxPoint x="323" y="1040" />
            </Array>
          </mxGeometry>
        </mxCell>
        <mxCell id="d1kIAFUHzAlKJHbenDgn-52" value="JOAO&lt;div&gt;JU&lt;/div&gt;&lt;div&gt;87.36&lt;/div&gt;" style="strokeWidth=2;html=1;shape=mxgraph.flowchart.display;whiteSpace=wrap;" vertex="1" parent="1">
          <mxGeometry x="590" y="250" width="200" height="110" as="geometry" />
        </mxCell>
        <mxCell id="d1kIAFUHzAlKJHbenDgn-53" value="NOME&lt;div&gt;JOAO&lt;/div&gt;&lt;div&gt;CIDADE&lt;/div&gt;&lt;div&gt;JU&lt;/div&gt;&lt;div&gt;VALOR_LITRO&lt;/div&gt;&lt;div&gt;5.60&lt;/div&gt;&lt;div&gt;VALOR_VIAGEM&lt;/div&gt;&lt;div&gt;120&lt;/div&gt;&lt;div&gt;67.2&lt;/div&gt;&lt;div&gt;87.36&lt;/div&gt;" style="rounded=1;whiteSpace=wrap;html=1;absoluteArcSize=1;arcSize=14;strokeWidth=2;" vertex="1" parent="1">
          <mxGeometry x="590" y="50" width="210" height="180" as="geometry" />
        </mxCell>
      </root>
    </mxGraphModel>
  </diagram>
</mxfile>
